<svg width="62" height="35" viewBox="0 0 62 35" fill="none" xmlns="http://www.w3.org/2000/svg">
<g clip-path="url(#clip0_1345_376)">
<path d="M7.58804 13.586C7.58804 13.586 3.42004 18.752 3.92004 21.919L1.08704 24.419V25.919C1.08704 25.919 7.92004 28.752 14.42 26.752V29.252L14.587 31.752L17.92 33.085C17.92 33.085 21.753 32.419 22.753 27.085C22.753 27.085 26.753 28.585 28.42 32.919L33.087 32.585C33.087 32.585 33.753 30.085 32.92 28.419L53.42 28.085L55.42 29.919V31.919L56.42 33.085H58.587L60.253 31.252L58.42 24.752L59.92 20.085C59.92 20.085 42.587 30.585 18.587 16.919L16.754 13.085C16.754 13.085 12.92 13.752 13.087 14.752C13.087 14.752 12.253 12.086 7.58704 13.586H7.58804Z" fill="#9B9B9A"/>
<path d="M18.463 4.63805C17.607 6.88805 16.63 7.93205 15.849 8.72405C15.5818 8.99928 15.2226 9.16634 14.8399 9.19327C14.4573 9.22021 14.0781 9.10513 13.775 8.87005L12.591 7.94405L9.16703 12.9981C8.94434 13.3267 8.64451 13.5958 8.29377 13.7819C7.94302 13.9679 7.55204 14.0651 7.15503 14.0651C7.15503 14.0651 4.48303 17.3361 3.55303 20.8711C3.29303 21.8621 2.67103 22.7211 1.84903 23.3331L1.46803 23.6181C1.46803 23.6181 -0.881971 25.5801 1.92303 26.4331C1.92303 26.4331 11.546 29.4721 16.879 25.2221M35.379 0.305054C35.379 0.305054 33.555 1.53205 32.179 1.79405C31.589 1.90705 31.017 2.02405 30.464 2.14405L27.296 1.47205C25.725 3.26705 23.542 4.12205 22.005 4.79605M53.963 6.80505C51.977 6.80505 51.413 6.65205 50.293 5.74805C49.4246 5.04937 48.6889 4.20019 48.121 3.24105L47.713 2.55105C45.072 2.55105 42.246 2.23105 39.665 1.80705M60.254 16.5001C57.158 15.3461 56.72 12.0851 55.696 10.7651M14.818 29.7451L14.591 30.2181C14.4444 30.5229 14.3775 30.86 14.3965 31.1978C14.4156 31.5355 14.52 31.8629 14.7 32.1493C14.8801 32.4358 15.1298 32.6718 15.4259 32.8355C15.722 32.9991 16.0547 33.085 16.393 33.0851H18.02C18.3806 33.0853 18.7346 32.988 19.0444 32.8035C19.3542 32.619 19.6084 32.3542 19.78 32.0371L22.625 26.7741C22.625 26.7741 26.126 28.2241 27.379 31.8101C27.652 32.5911 28.428 33.0851 29.255 33.0851H31.278C31.5584 33.0858 31.8357 33.0274 32.0921 32.9138C32.3484 32.8002 32.5779 32.6339 32.7656 32.4257C32.9533 32.2175 33.0951 31.972 33.1817 31.7054C33.2682 31.4387 33.2977 31.1568 33.268 30.8781C33.165 29.9501 32.977 28.9881 32.635 28.5651C32.635 28.5651 47.791 29.0021 52.642 27.9531C53.666 27.7311 54.686 28.3511 54.912 29.3741C55.022 29.8701 55.087 30.4261 55.054 31.0111C54.99 32.1511 55.907 33.0851 57.048 33.0851H57.438C58.562 33.0851 59.438 32.2851 59.511 31.2431C59.634 29.4991 59.497 26.8511 57.963 24.8121C57.963 24.8121 59.096 23.8201 59.075 20.7251M13.21 15.2181C13.21 15.2181 15.334 11.8911 17.23 14.8761C18.509 16.8911 16.922 19.9181 15.755 21.6741C15.4861 22.0776 15.0856 22.3755 14.6218 22.517C14.1579 22.6585 13.6594 22.6348 13.211 22.4501M21.421 12.5971L26.421 8.47205M25.546 18.1201L31.546 16.0621M30.921 10.7651L36.968 7.97205M33.944 21.4721L40.796 20.7251M42.796 14.6331L49.671 15.8651M40.944 10.4901L46.398 7.98705M47.04 21.7691L53.301 23.4461" stroke="#195557" stroke-width="2" stroke-miterlimit="10" stroke-linecap="round" stroke-linejoin="round"/>
</g>
<defs>
<clipPath id="clip0_1345_376">
<rect width="62" height="35" fill="white"/>
</clipPath>
</defs>
</svg>
