<svg width="35" height="34" viewBox="0 0 35 34" fill="none" xmlns="http://www.w3.org/2000/svg">
<path d="M27.7164 0L25.6479 2.06856L26.1869 2.60762L22.908 5.88656L24.9291 7.95369L28.2109 4.62731L30.2766 6.69444L26.9517 9.97194L29.0188 11.9945L32.2977 8.71556L32.8368 9.25462L34.9054 7.18606L27.7164 0ZM19.8102 5.03125L17.7416 7.09981L18.6861 8.04281L4.40162 22.3718L3.90712 22.8649L3.99769 23.5405L4.49075 28.1218L4.53675 28.6149L4.67044 28.7054L0 33.3773H4.08825L7.00925 30.4577L11.3649 30.9062L12.0405 30.9968L12.5336 30.5023L26.864 16.2164L27.807 17.1609L29.8741 15.0938L19.8102 5.03125ZM20.7532 10.1085L24.7969 14.1507L11.0055 27.9867L7.59144 27.5827L7.32119 27.3125L6.91725 23.8984L20.7532 10.1085Z" fill="#195557"/>
</svg>
